<svg width="12" height="20" viewBox="0 0 12 20" fill="none" xmlns="http://www.w3.org/2000/svg">
<path d="M11.3682 12.9126C11.3682 13.9982 10.9714 14.8929 10.1777 15.5967C9.38411 16.3005 8.23861 16.7347 6.74121 16.8994V19.3364H5.24756V16.9668C3.39079 16.9368 1.86719 16.6523 0.676758 16.1133V13.7437C1.32064 14.0581 2.07308 14.3239 2.93408 14.541C3.79508 14.7507 4.56624 14.8592 5.24756 14.8667V10.6665L4.3042 10.3184C3.07633 9.84668 2.1779 9.28516 1.60889 8.63379C1.04736 7.97493 0.766602 7.1626 0.766602 6.19678C0.766602 5.16357 1.16715 4.3138 1.96826 3.64746C2.77686 2.98112 3.86995 2.57682 5.24756 2.43457V0.547852H6.74121V2.40088C8.26107 2.45329 9.70231 2.76025 11.0649 3.32178L10.2451 5.37695C9.06966 4.91276 7.90169 4.63574 6.74121 4.5459V8.63379L7.59473 8.95947C9.01725 9.50602 10.0018 10.0825 10.5483 10.689C11.0949 11.2954 11.3682 12.0366 11.3682 12.9126ZM8.71777 13.0811C8.71777 12.6468 8.56429 12.2912 8.25732 12.0142C7.95785 11.7297 7.45247 11.4564 6.74121 11.1943V14.7769C8.05892 14.5747 8.71777 14.0094 8.71777 13.0811ZM3.40576 6.17432C3.40576 6.60107 3.53678 6.95671 3.79883 7.24121C4.06836 7.52572 4.55127 7.80648 5.24756 8.0835V4.59082C4.6486 4.68066 4.19189 4.8641 3.87744 5.14111C3.56299 5.41813 3.40576 5.76253 3.40576 6.17432Z" fill="#959595"/>
</svg>
