<svg width="51" height="96" viewBox="0 0 51 96" fill="none" xmlns="http://www.w3.org/2000/svg">
<path d="M42.393 0C40.223 0 38.2419 0.813123 36.7406 2.14708C35.2394 0.813123 33.2582 0 31.0883 0C28.9184 0 26.9372 0.813123 25.4358 2.14708C23.9345 0.813123 21.9534 0 19.7834 0C17.6133 0 15.6322 0.813123 14.1309 2.14708C12.6297 0.813123 10.6485 0 8.47861 0C3.80342 0 0 3.77053 0 8.40488V42.9583C0 47.2771 3.30302 50.8457 7.5365 51.3118V95.4422H13.189V45.7599H8.47861C6.92027 45.7599 5.65247 44.5031 5.65247 42.9583V33.1376C6.53704 33.4486 7.4878 33.6195 8.47861 33.6195C10.6487 33.6195 12.6297 32.8064 14.1311 31.4726C15.6324 32.8064 17.6135 33.6195 19.7835 33.6195C20.9385 33.6195 22.0397 33.3887 23.0443 32.9721C22.7613 34.076 22.6099 35.2312 22.6099 36.4211H28.2623C28.2623 31.7865 32.0659 28.0162 36.741 28.0162H39.5671V22.4129H36.741C33.0562 22.4129 29.913 20.0708 28.7466 16.8096H42.3934C43.9518 16.8096 45.2196 18.0664 45.2196 19.6111V19.7979V42.9583C45.2196 44.5031 43.9518 45.7599 42.3934 45.7599H37.6831V95.4422H43.3355V51.3118C47.569 50.8455 50.872 47.2773 50.872 42.9583V8.40488C50.8717 3.77053 47.0682 0 42.393 0ZM11.3047 25.2146C11.3047 26.7594 10.0369 28.0162 8.47861 28.0162C6.92027 28.0162 5.65247 26.7594 5.65247 25.2146V8.40488C5.65247 6.8601 6.92027 5.60332 8.47861 5.60332C10.0369 5.60332 11.3047 6.8601 11.3047 8.40488V25.2146ZM22.6097 25.2146C22.6097 26.7594 21.3419 28.0162 19.7835 28.0162C18.2252 28.0162 16.9574 26.7594 16.9574 25.2146V8.40488C16.9574 6.8601 18.2252 5.60332 19.7835 5.60332C21.3419 5.60332 22.6097 6.8601 22.6097 8.40488V25.2146ZM33.9144 11.2064H28.262V8.40488C28.262 6.8601 29.5298 5.60332 31.0881 5.60332C32.6464 5.60332 33.9142 6.8601 33.9142 8.40488V11.2064H33.9144ZM45.2194 11.6883C44.3348 11.3774 43.384 11.2064 42.3932 11.2064H39.5671V8.40488C39.5671 6.8601 40.8349 5.60332 42.3932 5.60332C43.9516 5.60332 45.2194 6.8601 45.2194 8.40488V11.6883Z" fill="#FF9A51"/>
</svg>
