<svg width="24" height="21" viewBox="0 0 24 21" fill="none" xmlns="http://www.w3.org/2000/svg">
<g filter="url(#filter0_d)">
<path d="M12 12C14.982 12 18 10.9695 18 9C18 7.0305 14.982 6 12 6C9.018 6 6 7.0305 6 9C6 10.9695 9.018 12 12 12Z" fill="#FFC83A"/>
</g>
<path d="M6 12C6 13.9695 9.018 15 12 15C14.982 15 18 13.9695 18 12V10.5C18 12.4695 14.982 13.5 12 13.5C9.018 13.5 6 12.4695 6 10.5V12Z" fill="url(#paint0_linear)"/>
<path d="M6 15C6 16.9695 9.018 18 12 18C14.982 18 18 16.9695 18 15V13.5C18 15.4695 14.982 16.5 12 16.5C9.018 16.5 6 15.4695 6 13.5V15Z" fill="url(#paint1_linear)"/>
<path d="M6 18C6 19.9695 9.018 21 12 21C14.982 21 18 19.9695 18 18V16.5C18 18.4695 14.982 19.5 12 19.5C9.018 19.5 6 18.4695 6 16.5V18Z" fill="url(#paint2_linear)"/>
<defs>
<filter id="filter0_d" x="0" y="0" width="24" height="18" filterUnits="userSpaceOnUse" color-interpolation-filters="sRGB">
<feFlood flood-opacity="0" result="BackgroundImageFix"/>
<feColorMatrix in="SourceAlpha" type="matrix" values="0 0 0 0 0 0 0 0 0 0 0 0 0 0 0 0 0 0 127 0"/>
<feOffset/>
<feGaussianBlur stdDeviation="3"/>
<feColorMatrix type="matrix" values="0 0 0 0 1 0 0 0 0 0.858833 0 0 0 0 0.358333 0 0 0 0.6 0"/>
<feBlend mode="normal" in2="BackgroundImageFix" result="effect1_dropShadow"/>
<feBlend mode="normal" in="SourceGraphic" in2="effect1_dropShadow" result="shape"/>
</filter>
<linearGradient id="paint0_linear" x1="0.956896" y1="11.983" x2="13.1239" y2="22.8027" gradientUnits="userSpaceOnUse">
<stop stop-color="#FF3232"/>
<stop offset="1" stop-color="#E3B922"/>
</linearGradient>
<linearGradient id="paint1_linear" x1="0.956896" y1="14.983" x2="13.1239" y2="25.8027" gradientUnits="userSpaceOnUse">
<stop stop-color="#FF3232"/>
<stop offset="1" stop-color="#E3B922"/>
</linearGradient>
<linearGradient id="paint2_linear" x1="0.956896" y1="17.983" x2="13.1239" y2="28.8027" gradientUnits="userSpaceOnUse">
<stop stop-color="#FF3232"/>
<stop offset="1" stop-color="#E3B922"/>
</linearGradient>
</defs>
</svg>
