<svg width="664" height="384" viewBox="0 0 664 384" fill="none" xmlns="http://www.w3.org/2000/svg">
<path d="M337.666 210.898C343.666 210.898 348.839 208.622 353.39 204.277L358.563 220.209C355.459 222.692 351.735 224.555 347.39 226.003C343.252 227.452 339.115 228.072 335.183 228.072C325.045 228.072 316.77 224.762 310.563 217.933C304.149 211.312 301.666 203.242 302.701 193.724C303.942 184.412 308.494 176.343 316.356 169.514C324.425 162.893 333.321 159.375 343.459 159.375C347.39 159.375 351.321 159.996 355.253 161.444C359.184 162.893 362.287 164.755 364.77 167.238L355.666 183.171C352.356 178.826 347.804 176.55 341.804 176.55C336.632 176.55 332.08 178.205 328.149 181.516C324.011 184.826 321.735 188.965 321.114 193.517C320.494 198.276 321.942 202.207 325.045 205.518C328.356 209.243 332.494 210.898 337.666 210.898Z" fill="white"/>
<path d="M409.588 160.911H431.312L401.726 199.812L398.416 226.298H379.795L382.898 199.812L362.829 160.911H384.553L394.485 181.189L409.588 160.911Z" fill="white"/>
<path d="M476.908 191.241C480.632 192.069 483.322 193.931 484.564 196.828C486.012 199.725 486.426 203.035 486.012 206.76C485.184 212.554 482.701 217.313 478.15 220.83C473.805 224.555 468.012 226.417 461.184 226.417H427.667L435.736 161.031H463.667C471.322 161.031 477.115 162.479 481.253 165.376C485.391 168.273 487.046 172.618 486.426 177.998C486.012 181.102 484.77 183.999 483.115 186.275C481.46 188.965 479.391 190.413 476.908 191.241ZM457.253 212.347C463.46 212.347 466.977 210.277 467.391 206.139C467.598 204.07 466.977 202.415 465.529 201.38C464.081 200.345 461.805 199.725 458.908 199.725H449.598L447.943 212.14H457.253V212.347ZM452.701 175.101L451.253 186.068H459.115C464.288 186.068 467.184 184.206 467.598 180.688C467.805 178.826 467.391 177.584 466.15 176.55C464.908 175.722 463.046 175.101 460.563 175.101H452.701Z" fill="white"/>
<path d="M540.012 178.205H515.184L514.15 186.068H534.426L532.564 201.586H512.288L511.253 209.449H536.081L534.012 226.624H490.564L498.633 161.237H542.081L540.012 178.205Z" fill="white"/>
<path d="M587.599 204.484L601.047 226.417H579.116L568.15 206.139H564.633L562.15 226.21H543.529L551.598 160.824H580.978C589.254 160.824 595.254 162.893 598.978 166.824C602.702 170.756 604.15 176.136 603.323 182.757C602.702 187.516 601.047 192.068 598.357 195.793C595.254 199.931 591.737 202.621 587.599 204.484ZM575.598 190.62C577.874 190.62 579.943 189.999 581.599 188.965C583.254 187.723 584.288 186.068 584.495 183.792C584.702 181.516 584.288 179.86 582.84 178.619C581.392 177.377 579.736 176.756 577.254 176.756H568.15L566.495 190.827L575.598 190.62Z" fill="white"/>
<path d="M610.564 161.031H663.323L661.254 178.205H644.082L638.082 226.417H619.461L625.461 178.205H608.288L610.564 161.031Z" fill="url(#paint0_linear)"/>
<path d="M238.058 216.927C233.313 211.948 228.361 207.383 223.616 202.196C220.934 199.291 219.284 199.499 216.602 202.196C211.444 207.383 207.112 212.985 201.129 217.135C200.923 218.38 200.098 219.002 198.86 219.417C197.209 221.284 195.559 223.152 193.909 225.227C192.258 227.094 191.227 226.471 189.782 225.019C179.88 214.853 169.771 204.686 159.662 194.727C157.393 192.444 157.599 191.2 159.662 189.125C167.295 181.655 174.516 173.979 182.149 166.717C184.831 164.227 184.625 162.567 182.149 160.285C176.992 155.305 171.834 150.326 166.883 144.931C164.201 142.026 162.757 142.649 160.487 145.139C148.934 156.55 137.381 167.962 126.034 179.581C117.989 187.88 117.989 195.972 126.034 204.271C132.842 211.325 139.65 218.38 146.459 225.227C146.871 225.642 147.49 226.264 147.903 226.679C153.06 230.621 157.393 235.186 161.519 240.165C162.963 240.788 164.201 241.825 165.026 243.485C167.914 246.39 171.009 249.295 174.103 252.199C174.516 252.614 174.929 253.029 175.341 253.444C176.373 254.482 177.198 255.311 178.229 256.349C188.338 266.516 195.765 266.516 205.668 256.556C211.651 250.539 217.634 244.73 223.616 238.92C224.648 237.883 225.473 236.846 226.505 235.808C227.124 235.393 227.536 234.771 228.155 234.356H228.774L229.187 233.941L229.599 233.733C229.805 232.696 230.218 232.074 231.25 231.866C233.106 228.546 235.788 226.057 239.089 223.982C239.708 223.359 240.121 222.737 240.74 222.322C241.771 219.625 239.502 218.38 238.058 216.927Z" fill="url(#paint1_linear)"/>
<path d="M256.636 178.542C246.955 169.069 237.274 159.391 227.593 149.713C219.972 142.094 212.351 134.475 204.936 126.444C197.315 118.207 188.458 117.795 180.425 125.62C178.365 127.474 176.717 129.739 174.657 131.386C171.362 134.063 170.95 135.916 174.451 139.005C181.249 145.183 187.222 152.184 194.019 158.156C198.551 162.274 197.727 164.951 193.813 168.657C187.222 175.041 181.043 181.63 174.245 188.014C171.156 190.897 171.362 192.75 174.451 195.427C177.953 198.516 181.248 202.016 184.544 205.311C191.753 212.518 191.753 212.518 199.581 206.959C204.936 199.957 211.939 194.603 217.707 188.014C220.384 185.131 221.826 185.955 224.298 188.22C229.859 193.986 235.627 199.545 241.188 205.105C249.015 212.93 249.015 212.93 256.842 205.311C266.317 195.633 266.523 188.014 256.636 178.542Z" fill="url(#paint2_linear)"/>
<g filter="url(#filter0_f)">
<path d="M223.982 209.1C220.727 205.725 217.331 202.632 214.076 199.116C212.236 197.148 211.104 197.288 209.264 199.116C205.726 202.632 202.755 206.428 198.651 209.24C198.509 210.084 197.943 210.506 197.094 210.787C195.962 212.052 194.83 213.318 193.698 214.724C192.565 215.989 191.858 215.567 190.867 214.583C184.075 207.693 177.14 200.804 170.206 194.055C168.65 192.508 168.791 191.664 170.206 190.258C175.442 185.196 180.395 179.994 185.631 175.072C187.471 173.385 187.329 172.26 185.631 170.714C182.093 167.339 178.556 163.964 175.159 160.309C173.319 158.34 172.329 158.762 170.772 160.449C162.847 168.183 154.923 175.916 147.139 183.79C141.62 189.414 141.62 194.898 147.139 200.522C151.809 205.303 156.479 210.084 161.149 214.724C161.432 215.005 161.857 215.427 162.14 215.708C165.678 218.38 168.65 221.473 171.48 224.848C172.47 225.269 173.319 225.972 173.886 227.097C175.867 229.066 177.989 231.034 180.112 233.003C180.395 233.284 180.678 233.565 180.961 233.846C181.669 234.549 182.235 235.112 182.942 235.815C189.877 242.705 194.971 242.705 201.764 235.956C205.868 231.878 209.972 227.941 214.076 224.004C214.783 223.301 215.349 222.598 216.057 221.895C216.481 221.614 216.764 221.192 217.189 220.911H217.614L217.897 220.629L218.18 220.489C218.321 219.786 218.604 219.364 219.312 219.223C220.585 216.974 222.425 215.286 224.689 213.88C225.114 213.458 225.397 213.037 225.821 212.755C226.529 210.927 224.972 210.084 223.982 209.1Z" fill="url(#paint3_linear)"/>
</g>
<g filter="url(#filter1_f)">
<path d="M235.957 182.886C229.328 176.432 222.699 169.838 216.069 163.244C210.851 158.053 205.632 152.862 200.554 147.39C195.335 141.778 189.27 141.498 183.769 146.829C182.359 148.092 181.23 149.635 179.82 150.757C177.563 152.581 177.281 153.844 179.679 155.948C184.333 160.157 188.424 164.927 193.078 168.996C196.181 171.802 195.617 173.626 192.937 176.151C188.424 180.5 184.192 184.99 179.538 189.339C177.422 191.303 177.563 192.566 179.679 194.39C182.076 196.494 184.333 198.879 186.59 201.124C191.527 206.035 191.527 206.035 196.887 202.246C200.554 197.476 205.35 193.829 209.299 189.339C211.133 187.375 212.12 187.936 213.813 189.479C217.621 193.408 221.57 197.196 225.379 200.984C230.739 206.315 230.739 206.315 236.099 201.124C242.587 194.53 242.728 189.339 235.957 182.886Z" fill="url(#paint4_linear)"/>
</g>
<defs>
<filter id="filter0_f" x="0" y="16" width="369" height="368" filterUnits="userSpaceOnUse" color-interpolation-filters="sRGB">
<feFlood flood-opacity="0" result="BackgroundImageFix"/>
<feBlend mode="normal" in="SourceGraphic" in2="BackgroundImageFix" result="shape"/>
<feGaussianBlur stdDeviation="71.5" result="effect1_foregroundBlur"/>
</filter>
<filter id="filter1_f" x="35" y="0" width="349" height="348" filterUnits="userSpaceOnUse" color-interpolation-filters="sRGB">
<feFlood flood-opacity="0" result="BackgroundImageFix"/>
<feBlend mode="normal" in="SourceGraphic" in2="BackgroundImageFix" result="shape"/>
<feGaussianBlur stdDeviation="71.5" result="effect1_foregroundBlur"/>
</filter>
<linearGradient id="paint0_linear" x1="608.312" y1="193.718" x2="676.607" y2="212.735" gradientUnits="userSpaceOnUse">
<stop stop-color="#FF3232"/>
<stop offset="1" stop-color="#E3B922"/>
</linearGradient>
<linearGradient id="paint1_linear" x1="120.052" y1="203.489" x2="265.887" y2="251.735" gradientUnits="userSpaceOnUse">
<stop stop-color="#FF3232"/>
<stop offset="1" stop-color="#E3B922"/>
</linearGradient>
<linearGradient id="paint2_linear" x1="172.039" y1="165.492" x2="282.681" y2="202.497" gradientUnits="userSpaceOnUse">
<stop stop-color="#FF3232"/>
<stop offset="1" stop-color="#E3B922"/>
</linearGradient>
<linearGradient id="paint3_linear" x1="143.035" y1="199.993" x2="242.83" y2="233.409" gradientUnits="userSpaceOnUse">
<stop stop-color="#FF3232"/>
<stop offset="1" stop-color="#E3B922"/>
</linearGradient>
<linearGradient id="paint4_linear" x1="178.027" y1="173.995" x2="253.715" y2="199.438" gradientUnits="userSpaceOnUse">
<stop stop-color="#FF3232"/>
<stop offset="1" stop-color="#E3B922"/>
</linearGradient>
</defs>
</svg>
