<svg width="90" height="96" viewBox="0 0 90 96" fill="none" xmlns="http://www.w3.org/2000/svg">
<path d="M88.9801 75.7106L81.1177 69.2079L80.2683 59.0077C80.1866 58.026 79.5997 57.1588 78.7214 56.7217C77.8434 56.2852 76.8014 56.342 75.9754 56.8721L69.0567 61.314V37.8381C69.0567 31.1357 63.6525 25.683 57.0098 25.683H53.991C57.2615 23.0344 59.3595 18.9786 59.3595 14.4375C59.3595 6.47662 52.918 0 45.0002 0C37.0825 0 30.6409 6.47662 30.6409 14.4375C30.6409 18.9786 32.7389 23.0344 36.0092 25.683H32.9906C26.3481 25.683 20.9439 31.1357 20.9439 37.8381V61.314L14.0252 56.8719C13.199 56.3417 12.1575 56.2847 11.2792 56.7215C10.4009 57.1586 9.81398 58.0258 9.7323 59.0075L8.88287 69.2077L1.02032 75.7106C0.263568 76.3365 -0.112385 77.315 0.0295299 78.2898C0.171444 79.2648 0.810526 80.094 1.71386 80.4755L11.0998 84.44L14.8211 93.9675C15.1793 94.8845 15.9887 95.5462 16.9547 95.712C17.1115 95.7388 17.2687 95.7519 17.4248 95.7519C18.2304 95.7519 19.0064 95.4017 19.5425 94.7767L26.1927 87.0264L28.0928 86.9115L27.5794 92.948C27.4959 93.9296 27.9294 94.8838 28.7222 95.4628C29.5151 96.0422 30.5516 96.1616 31.4542 95.7787L45.0002 90.0292L58.5457 95.7785C58.8955 95.927 59.2653 96 59.6333 96C60.2151 96 60.7923 95.8175 61.2777 95.4628C62.0706 94.8836 62.5042 93.9296 62.4206 92.948L61.9072 86.9117L63.8071 87.0264L70.4574 94.7767C70.9937 95.4017 71.7695 95.7519 72.5751 95.7519C72.7312 95.7519 72.8885 95.7388 73.0452 95.712C74.0112 95.5462 74.8207 94.8845 75.1788 93.9675L78.9001 84.44L88.286 80.4755C89.1895 80.094 89.8284 79.2648 89.9703 78.2898C90.1126 77.315 89.7368 76.3365 88.9801 75.7106ZM45.0002 5.625C49.8331 5.625 53.765 9.57825 53.765 14.4375C53.765 19.2967 49.8331 23.25 45.0002 23.25C40.1673 23.25 36.2354 19.2967 36.2354 14.4375C36.2354 9.57825 40.1673 5.625 45.0002 5.625ZM32.9906 31.308H42.2029V39.1751C42.2029 40.7284 43.4554 41.9876 45.0002 41.9876C46.5452 41.9876 47.7975 40.7284 47.7975 39.1751V31.308H57.0098C60.5675 31.308 63.4621 34.2373 63.4621 37.8381V61.0927L54.9926 59.109L47.395 46.4525C46.8887 45.609 45.9802 45.0934 45.0002 45.0934C44.0202 45.0934 43.1117 45.609 42.6054 46.4525L35.008 59.109L26.5385 61.0927V37.8381C26.5385 34.2373 29.4329 31.308 32.9906 31.308ZM24.6786 81.4828C23.9251 81.5284 23.2218 81.878 22.7286 82.4529L18.3345 87.5739L15.8757 81.2788C15.5997 80.5723 15.0514 80.0079 14.3554 79.7139L8.15372 77.0944L13.3486 72.7978C13.9317 72.3157 14.2961 71.6169 14.3592 70.8605L14.9205 64.1209L18.9698 66.7207C19.0412 66.8327 28.8324 78.2188 28.8324 78.2188L28.5749 81.2473L24.6786 81.4828ZM46.0882 84.3855C45.7404 84.2379 45.3702 84.164 45.0002 84.164C44.6302 84.164 44.2601 84.2379 43.9124 84.3855L33.549 88.7842L34.5073 77.5151C34.5716 76.7587 34.329 76.0083 33.835 75.4344L26.4719 66.8837L37.4276 64.3175C38.1629 64.1454 38.7977 63.6815 39.1879 63.0319L45.0002 53.3486L50.8131 63.032C51.2032 63.6819 51.838 64.1456 52.5731 64.3177L63.5289 66.8839L56.1658 75.4346C55.6716 76.0085 55.4292 76.7589 55.4935 77.5153L56.4518 88.7844L46.0882 84.3855ZM75.645 79.7139C74.949 80.0077 74.4006 80.5723 74.1248 81.2788L71.666 87.5739L67.2718 82.4529C66.7786 81.8782 66.0753 81.5282 65.3218 81.4828L61.4257 81.2473L61.1682 78.2188C61.1682 78.2188 70.9594 66.8325 71.0308 66.7205L75.0801 64.1209L75.6414 70.8604C75.7043 71.6169 76.0689 72.3157 76.6518 72.7978L81.8467 77.0944L75.645 79.7139Z" fill="#FF9A51"/>
</svg>
