<svg width="96" height="96" viewBox="0 0 96 96" fill="none" xmlns="http://www.w3.org/2000/svg">
<path d="M92.6187 0H2.82282C1.26386 0 0 1.26386 0 2.82282V92.6187C0 94.1776 1.26386 95.4415 2.82282 95.4415H35.8468C35.8533 95.4415 35.86 95.4422 35.8667 95.4422C35.8717 95.4422 35.877 95.4415 35.882 95.4415H92.6187C94.1776 95.4415 95.4415 94.1776 95.4415 92.6187V56.4045C95.4415 56.4021 95.4415 56.3996 95.4415 56.3972V2.82282C95.4415 1.26386 94.1776 0 92.6187 0ZM89.7957 54.8597L83.5481 58.9932L78.6093 51.4441C77.7558 50.1394 76.0059 49.7742 74.7016 50.6273C73.3969 51.4808 73.0312 53.2303 73.8848 54.535L78.8396 62.1085L71.3022 67.0951C70.002 67.9554 69.6452 69.7066 70.5057 71.0068C71.0487 71.8277 71.9468 72.2725 72.8623 72.2725C73.3971 72.2725 73.9381 72.1206 74.4173 71.8035L89.7958 61.629V89.7958H37.755V89.7957L31.8464 75.4629L43.5127 67.2484C44.7876 66.3508 45.0931 64.5898 44.1957 63.3153C43.2983 62.0406 41.5369 61.7349 40.2626 62.6323L29.6406 70.1116L27.0653 63.8646C26.4712 62.4233 24.8209 61.7364 23.3798 62.3307C21.9385 62.9249 21.2516 64.5751 21.8458 66.0164L25.7882 75.5796C25.7884 75.5802 25.7886 75.5805 25.7888 75.5811L31.6488 89.796H5.64563V41.3889L26.0266 28.7529L38.6366 35.185C38.6416 35.1876 38.6468 35.1902 38.6521 35.1928L52.6489 42.3322C53.0597 42.5417 53.4976 42.641 53.9293 42.641C54.9566 42.641 55.9474 42.0783 56.4461 41.1002C57.1544 39.7114 56.6028 38.0115 55.2141 37.303L44.1316 31.6503L46.5283 28.3383H54.8722C56.4311 28.3383 57.695 27.0745 57.695 25.5155C57.695 23.9566 56.4311 22.6927 54.8722 22.6927H45.0866C44.181 22.6927 43.3306 23.127 42.7997 23.8606L39.0413 29.054L27.174 23.0008C26.2941 22.552 25.2435 22.5959 24.4041 23.1162L5.64544 34.7462V5.64563H67.3742L74.1008 17.048L71.4601 23.0637C70.8334 24.491 71.4825 26.1564 72.91 26.7829C73.2793 26.9449 73.6642 27.0219 74.043 27.0219C75.1291 27.0219 76.1644 26.3913 76.6291 25.333L79.851 17.9937C80.2158 17.1626 80.159 16.2067 79.6978 15.4249L73.9288 5.64563H89.7955V54.8597H89.7957Z" fill="#FF9A51"/>
</svg>
