<svg width="112" height="112" viewBox="0 0 112 112" fill="none" xmlns="http://www.w3.org/2000/svg">
<circle cx="56.0008" cy="55.7801" r="55.6883" fill="white"/>
<path d="M51.9391 61.8949C50.998 63.7634 49.8216 65.4984 49.2503 67.4002C48.5108 70.0027 47.4017 72.2381 45.4859 74.1733C45.0154 74.6404 44.8473 75.4746 44.7801 76.1752C44.4776 79.4784 43.1332 82.2811 41.1502 84.9503C39.705 86.9189 39.3353 89.3212 40.0747 91.7902C40.6124 93.5585 40.4444 93.8255 38.663 93.9923C34.5626 94.3259 33.9576 93.6253 34.9659 89.6882C35.2684 88.5204 35.6717 87.3526 35.907 86.1515C36.0751 85.2506 35.9406 84.3164 36.0078 83.4155C36.0414 82.5814 35.9406 81.6805 36.2431 80.9465C37.5203 77.9102 38.6967 74.8073 40.3772 72.0046C41.5199 70.0694 40.7469 68.1009 41.2846 66.199C41.6207 64.9645 41.856 63.6966 41.856 62.4288C41.856 60.9273 41.5871 59.3925 41.4527 57.8911C41.4191 57.4573 41.3519 56.8234 41.5871 56.6232C43.4693 55.055 42.2257 53.22 42.1921 51.485C42.1585 50.0169 41.4527 48.3486 43.8054 47.1141C40.6124 47.2142 41.3183 45.4792 41.5199 43.9444C41.688 42.7433 41.8224 41.5088 41.8224 40.3076C41.8224 39.2399 42.1585 38.7394 43.2676 38.8395C44.6793 38.9396 45.1834 38.4058 44.9482 36.8376C44.5112 34.0683 45.0826 31.3991 46.5278 28.9968C48.0067 26.4944 50.3258 25.6269 53.2499 26.5945C53.2163 26.094 53.2163 25.6936 53.1154 25.3266C52.1407 21.6898 54.0229 18.1531 57.6864 17.5859C61.6861 16.9519 65.0807 19.6545 64.274 24.1255C64.2068 24.4925 63.8707 25.0263 63.5682 25.1264C61.9885 25.5602 62.3583 26.5611 62.728 27.5954C64.7782 27.8624 66.089 27.2284 66.7276 25.6269C67.1981 26.9949 68.1728 27.3619 69.4836 27.3619C73.7857 27.3285 78.1215 27.3285 82.4236 27.3619C83.163 27.3619 83.936 27.6288 84.7763 27.7956C84.7763 27.095 84.7763 26.2275 84.7763 25.1598C85.3813 26.2942 85.7846 27.3285 86.3896 28.196C86.6921 28.5964 87.3307 28.9634 87.8348 28.9634C89.8514 29.0635 91.868 28.9968 94.288 28.9968C93.1788 30.298 92.0697 29.7976 91.095 29.7976C88.9776 29.8309 86.6248 29.2303 84.8435 29.9644C82.8941 30.7985 81.1128 30.4315 79.2642 30.5316C76.1385 30.6984 74.4579 32.7337 75.2646 35.7699C75.3654 36.1036 75.399 36.4039 75.3654 36.2704C74.7268 37.5049 74.1218 38.3391 73.9202 39.2399C73.0799 42.6432 70.5255 44.0779 67.2317 42.7433C65.7529 42.1427 64.3077 41.3419 62.728 40.5745C62.5263 41.075 62.3583 41.5421 62.123 42.1427C63.8707 42.8434 64.0724 44.2781 63.8707 45.8462C63.6354 47.7481 63.4338 49.6832 62.9968 51.5517C62.896 51.9854 61.9549 52.4859 61.4172 52.4859C60.4761 52.4859 60.14 52.8196 60.308 53.6537C60.4761 54.3877 60.6105 55.2552 61.0811 55.7891C63.6691 58.6251 64.8118 62.1952 66.5931 65.4316C68.677 69.2019 68.24 72.9388 67.7359 76.8092C67.5678 78.0437 67.8703 79.3449 67.7695 80.6128C67.6687 82.0142 67.2654 83.4155 67.1981 84.8502C67.0973 86.8188 68.9123 89.2544 70.7944 89.9885C71.1641 90.1219 71.6011 90.1887 71.87 90.4222C72.3405 90.8893 72.6766 91.4565 73.0463 91.9904C72.5086 92.2573 71.9708 92.7244 71.433 92.7244C69.45 92.6243 67.4334 92.3574 65.4504 92.1906C64.6101 92.1238 63.8035 92.1572 62.9632 92.1906C61.5852 92.2239 61.1483 91.6234 61.518 90.3555C62.1902 88.0199 62.728 85.6176 62.2574 83.1819C61.8541 81.1467 61.2155 79.1114 61.0475 77.0427C60.913 75.4746 61.35 73.8397 61.5852 72.2381C61.7533 70.9369 61.6861 69.9693 59.9047 70.036C59.3333 70.0694 58.5939 69.4355 58.1906 68.9016C57.2831 67.7672 56.6109 66.466 55.7034 65.3649C55.1657 64.6976 54.2918 64.2972 53.6196 63.73C53.1491 63.2295 52.6785 62.6623 51.9391 61.8949ZM69.6517 36.1036C70.4919 34.8691 71.1978 33.9015 71.7691 32.8672C71.9372 32.5669 71.7019 31.8996 71.3994 31.6326C71.1977 31.4658 70.4919 31.5993 70.223 31.8328C69.5845 32.4334 69.0803 33.1674 68.4753 33.9015C68.7778 34.4687 69.1139 35.1026 69.6517 36.1036Z" fill="black"/>
</svg>
