<svg width="213" height="57" viewBox="0 0 213 57" fill="none" xmlns="http://www.w3.org/2000/svg">
<path d="M85.9536 35.4616C88.2943 35.4616 90.3122 34.5736 92.088 32.8784L94.1058 39.0941C92.8951 40.0628 91.4422 40.7893 89.7472 41.3544C88.1329 41.9195 86.5186 42.1617 84.985 42.1617C81.0299 42.1617 77.8013 40.8701 75.3798 38.2062C72.8776 35.623 71.9091 32.4748 72.3126 28.7615C72.7969 25.1289 74.5727 21.9807 77.6399 19.3168C80.7878 16.7336 84.2585 15.3613 88.2136 15.3613C89.7472 15.3613 91.2808 15.6035 92.8144 16.1686C94.348 16.7336 95.5587 17.4601 96.5273 18.4288L92.9758 24.6446C91.6844 22.9494 89.9086 22.0614 87.5679 22.0614C85.55 22.0614 83.7742 22.7072 82.2407 23.9988C80.6263 25.2904 79.7385 26.9048 79.4963 28.6808C79.2542 30.5374 79.8192 32.0712 81.0299 33.3628C82.3214 34.8158 83.9357 35.4616 85.9536 35.4616Z" fill="white"/>
<path d="M114.012 15.9604H122.487L110.945 31.1365L109.653 41.4692H102.389L103.6 31.1365L95.7704 15.9604H104.245L108.12 23.8714L114.012 15.9604Z" fill="white"/>
<path d="M140.275 27.7928C141.728 28.1157 142.777 28.8422 143.262 29.9723C143.827 31.1024 143.988 32.394 143.827 33.8471C143.504 36.1073 142.535 37.964 140.76 39.3363C139.065 40.7893 136.804 41.5158 134.141 41.5158H121.065L124.213 16.0071H135.109C138.096 16.0071 140.356 16.5721 141.97 17.7023C143.585 18.8324 144.23 20.5276 143.988 22.6264C143.827 23.8373 143.342 24.9674 142.697 25.8554C142.051 26.9048 141.244 27.4699 140.275 27.7928ZM132.607 36.0266C135.029 36.0266 136.401 35.2194 136.562 33.6049C136.643 32.7976 136.401 32.1519 135.836 31.7482C135.271 31.3446 134.383 31.1024 133.253 31.1024H129.621L128.975 35.9459H132.607V36.0266ZM130.832 21.4963L130.267 25.7747H133.334C135.352 25.7747 136.482 25.0482 136.643 23.6758C136.724 22.9493 136.562 22.465 136.078 22.0614C135.594 21.7385 134.867 21.4963 133.899 21.4963H130.832Z" fill="white"/>
<path d="M164.893 22.7072H155.208L154.804 25.7748H162.714L161.988 31.829H154.078L153.674 34.8966H163.36L162.553 41.5966H145.602L148.75 16.0879H165.701L164.893 22.7072Z" fill="white"/>
<path d="M183.458 32.9592L188.705 41.516H180.149L175.871 33.605H174.499L173.53 41.4353H166.266L169.414 15.9265H180.875C184.104 15.9265 186.445 16.7338 187.897 18.2675C189.35 19.8013 189.915 21.9001 189.592 24.4832C189.35 26.3399 188.705 28.1158 187.655 29.5688C186.445 31.1833 185.072 32.2327 183.458 32.9592ZM178.777 27.5507C179.664 27.5507 180.472 27.3086 181.117 26.905C181.763 26.4206 182.167 25.7748 182.247 24.8869C182.328 23.9989 182.167 23.3531 181.602 22.8688C181.037 22.3844 180.391 22.1423 179.422 22.1423H175.871L175.225 27.6315L178.777 27.5507Z" fill="white"/>
<path d="M192.417 16.0071H213L212.193 22.7072H205.493L203.153 41.5158H195.888L198.229 22.7072H191.529L192.417 16.0071Z" fill="url(#paint0_linear)"/>
<path d="M47.1294 37.8831C45.273 35.9457 43.3358 34.1698 41.4794 32.1517C40.4301 31.0216 39.7843 31.1023 38.735 32.1517C36.7171 34.1698 35.0221 36.3494 32.6814 37.9638C32.6006 38.4482 32.2778 38.6903 31.7935 38.8518C31.1478 39.5783 30.502 40.3048 29.8563 41.1121C29.2106 41.8386 28.807 41.5964 28.242 41.0313C24.3676 37.0759 20.4126 33.1204 16.4575 29.2457C15.5696 28.3577 15.6504 27.8733 16.4575 27.0661C19.444 24.16 22.269 21.1733 25.2555 18.3479C26.3048 17.3792 26.2241 16.7335 25.2555 15.8455C23.2376 13.9081 21.2197 11.9707 19.2826 9.87192C18.2333 8.74179 17.6682 8.98396 16.7804 9.95265C12.2603 14.3925 7.74023 18.8323 3.30087 23.3528C0.152964 26.5818 0.152964 29.73 3.30087 32.959C5.96449 35.7036 8.6281 38.4482 11.2917 41.1121C11.4531 41.2735 11.6953 41.5157 11.8567 41.6771C13.8746 43.2109 15.5696 44.9868 17.184 46.9242C17.749 47.1664 18.2333 47.57 18.5561 48.2158C19.6861 49.3459 20.8969 50.476 22.1076 51.6062C22.269 51.7676 22.4305 51.9291 22.5919 52.0905C22.9955 52.4941 23.3183 52.817 23.7219 53.2206C27.677 57.1761 30.5827 57.1761 34.4571 53.3014C36.7978 50.9604 39.1386 48.7001 41.4794 46.4398C41.8829 46.0362 42.2058 45.6326 42.6094 45.229C42.8515 45.0675 43.013 44.8254 43.2551 44.6639H43.4972L43.6587 44.5025L43.8201 44.4217C43.9008 44.0181 44.0623 43.7759 44.4658 43.6952C45.1923 42.4036 46.2416 41.435 47.533 40.6277C47.7752 40.3855 47.9366 40.1434 48.1787 39.9819C48.5823 38.9325 47.6945 38.4482 47.1294 37.8831Z" fill="url(#paint1_linear)"/>
<path d="M54.3132 22.9493C50.5195 19.236 46.7259 15.4419 42.9323 11.6479C39.9458 8.66113 36.9593 5.67434 34.0536 2.52611C31.0671 -0.702842 27.5963 -0.86429 24.4484 2.20322C23.6412 2.92973 22.9955 3.81769 22.1884 4.46349C20.8969 5.5129 20.7355 6.23941 22.1077 7.45027C24.7713 9.87198 27.112 12.6166 29.7756 14.9576C31.5514 16.5721 31.2285 17.6215 29.6949 19.0745C27.112 21.5769 24.6906 24.1601 22.0269 26.6626C20.8162 27.7927 20.8969 28.5192 22.1077 29.5686C23.4798 30.7795 24.7713 32.1518 26.0627 33.4434C28.8878 36.2687 28.8878 36.2687 31.955 34.0891C34.0536 31.3445 36.7979 29.2457 39.0579 26.6626C40.1072 25.5324 40.6722 25.8553 41.6408 26.7433C43.8201 29.0035 46.0802 31.1831 48.2595 33.3626C51.3267 36.4301 51.3267 36.4301 54.3939 33.4434C58.1068 29.6493 58.1875 26.6625 54.3132 22.9493Z" fill="url(#paint2_linear)"/>
<defs>
<linearGradient id="paint0_linear" x1="191.539" y1="28.7592" x2="218.182" y2="36.178" gradientUnits="userSpaceOnUse">
<stop stop-color="#FF3232"/>
<stop offset="1" stop-color="#E3B922"/>
</linearGradient>
<linearGradient id="paint1_linear" x1="0.96012" y1="32.6549" x2="57.9543" y2="51.6154" gradientUnits="userSpaceOnUse">
<stop stop-color="#FF3232"/>
<stop offset="1" stop-color="#E3B922"/>
</linearGradient>
<linearGradient id="paint2_linear" x1="21.1625" y1="17.8336" x2="64.5226" y2="32.3301" gradientUnits="userSpaceOnUse">
<stop stop-color="#FF3232"/>
<stop offset="1" stop-color="#E3B922"/>
</linearGradient>
</defs>
</svg>
