<svg width="88" height="96" viewBox="0 0 88 96" fill="none" xmlns="http://www.w3.org/2000/svg">
<path d="M15.0437 68.5986H3.00873C1.34697 68.5986 0 69.9341 0 71.5812C0 73.2283 1.34697 74.5638 3.00873 74.5638H12.0349V79.0376H3.00873C1.34697 79.0376 0 80.3731 0 82.0202V92.4592C0 94.1063 1.34697 95.4418 3.00873 95.4418H15.0437C16.7054 95.4418 18.0524 94.1063 18.0524 92.4592C18.0524 90.8121 16.7054 89.4766 15.0437 89.4766H6.01747V85.0028H15.0437C16.7054 85.0028 18.0524 83.6673 18.0524 82.0202V71.5812C18.0524 69.9341 16.7054 68.5986 15.0437 68.5986Z" fill="#FF9A51"/>
<path d="M39.1133 68.5986C37.4515 68.5986 36.1046 69.9341 36.1046 71.5812V79.0376H30.0871V71.5812C30.0871 69.9341 28.7401 68.5986 27.0784 68.5986C25.4166 68.5986 24.0696 69.9341 24.0696 71.5812V82.0202C24.0696 83.6673 25.4166 85.0028 27.0784 85.0028H36.1046V92.4592C36.1046 94.1063 37.4515 95.4418 39.1133 95.4418C40.7751 95.4418 42.122 94.1063 42.122 92.4592V71.5812C42.122 69.9341 40.7751 68.5986 39.1133 68.5986Z" fill="#FF9A51"/>
<path d="M63.1718 68.9915C61.7285 68.1745 59.8911 68.6711 59.0667 70.1014L47.0318 90.9794C46.2072 92.4096 46.7085 94.2315 48.1512 95.0488C48.6223 95.3155 49.1351 95.4423 49.6413 95.4423C50.6857 95.4423 51.701 94.9022 52.2563 93.9389L64.2912 73.0609C65.1158 71.6307 64.6144 69.8088 63.1718 68.9915Z" fill="#FF9A51"/>
<path d="M84.2441 68.5986H72.2092C70.5474 68.5986 69.2004 69.9341 69.2004 71.5812C69.2004 73.2283 70.5474 74.5638 72.2092 74.5638H81.2354V92.4592C81.2354 94.1063 82.5823 95.4418 84.2441 95.4418C85.9059 95.4418 87.2528 94.1063 87.2528 92.4592V71.5812C87.2528 69.9341 85.9059 68.5986 84.2441 68.5986Z" fill="#FF9A51"/>
<path d="M75.4888 50.7049C78.15 45.6118 78.2269 35.4422 78.2269 34.2994C78.2269 15.3866 62.7053 0 43.6267 0C24.548 0 9.02643 15.3866 9.02643 34.2994C9.02643 35.4333 9.1024 45.4526 11.7029 50.5837C12.2458 51.83 16.5335 60.9324 26.5842 62.593C26.7515 62.6206 26.9179 62.634 27.0823 62.634C28.5265 62.634 29.801 61.6001 30.0464 60.1413C30.3197 58.5166 29.2123 56.9798 27.5735 56.7089C25.788 56.4139 24.2535 55.746 22.9543 54.9073C25.3376 54.3363 27.6278 53.1278 29.3283 51.4419C31.8545 48.9379 33.224 45.3532 32.9918 41.8532C32.7879 38.7765 31.3816 36.0984 29.0316 34.3122C27.8933 33.4471 25.5849 32.2272 18.7085 31.6255C17.4382 31.5144 16.227 31.4434 15.1926 31.3977C16.6629 17.1323 28.8539 5.9651 43.6265 5.9651C58.3991 5.9651 70.5902 17.1323 72.0603 31.3981C71.0259 31.4437 69.8147 31.5148 68.5444 31.6259C61.668 32.2276 59.3594 33.4473 58.2214 34.3126C55.8715 36.0988 54.465 38.7769 54.2611 41.8536C54.0291 45.3536 55.3986 48.9383 57.9246 51.4423C60.3444 53.841 63.9563 55.279 67.3338 55.279C67.9053 55.279 68.4705 55.2378 69.0217 55.1532C71.9268 54.7067 74.2234 53.1269 75.4888 50.7049Z" fill="#FF9A51"/>
</svg>
